<?xml version="1.0" encoding="UTF-8" standalone="no"?>
<!-- Created with Inkscape (http://www.inkscape.org/) -->

<svg
   xmlns:dc="http://purl.org/dc/elements/1.1/"
   xmlns:cc="http://creativecommons.org/ns#"
   xmlns:rdf="http://www.w3.org/1999/02/22-rdf-syntax-ns#"
   xmlns:svg="http://www.w3.org/2000/svg"
   xmlns="http://www.w3.org/2000/svg"
   xmlns:sodipodi="http://sodipodi.sourceforge.net/DTD/sodipodi-0.dtd"
   xmlns:inkscape="http://www.inkscape.org/namespaces/inkscape"
   width="210mm"
   height="297mm"
   viewBox="0 0 210 297"
   version="1.1"
   id="svg4817"
   inkscape:export-filename="/home/s0lid/Sources/socOS/documentation/images/logo_136x80.png"
   inkscape:export-xdpi="96"
   inkscape:export-ydpi="96"
   inkscape:version="0.92.4 (unknown)"
   sodipodi:docname="logo.svg">
  <defs
     id="defs4811" />
  <sodipodi:namedview
     id="base"
     pagecolor="#ffffff"
     bordercolor="#666666"
     borderopacity="1.0"
     inkscape:pageopacity="0.0"
     inkscape:pageshadow="2"
     inkscape:zoom="1.4"
     inkscape:cx="325.71112"
     inkscape:cy="813.286"
     inkscape:document-units="mm"
     inkscape:current-layer="layer1"
     showgrid="false"
     inkscape:window-width="1920"
     inkscape:window-height="1110"
     inkscape:window-x="0"
     inkscape:window-y="28"
     inkscape:window-maximized="1" />
  <metadata
     id="metadata4814">
    <rdf:RDF>
      <cc:Work
         rdf:about="">
        <dc:format>image/svg+xml</dc:format>
        <dc:type
           rdf:resource="http://purl.org/dc/dcmitype/StillImage" />
        <dc:title></dc:title>
      </cc:Work>
    </rdf:RDF>
  </metadata>
  <g
     inkscape:label="Layer 1"
     inkscape:groupmode="layer"
     id="layer1">
    <g
       id="g4741"
       transform="matrix(0.10583334,0,0,-0.10583334,90.891094,62.253308)"
       inkscape:export-xdpi="96"
       inkscape:export-ydpi="96">
      <path
         inkscape:connector-curvature="0"
         id="path14"
         style="fill:#1e7cc9;fill-opacity:1;fill-rule:evenodd;stroke:none"
         d="m 133.48,189.941 c -5.41,0.071 -9.625,4.168 -9.515,8.969 0.105,4.781 4.453,8.449 9.758,8.399 5.215,-0.098 9.441,-3.957 9.48,-8.707 0,-4.84 -4.363,-8.762 -9.723,-8.661 v 0" />
      <path
         inkscape:connector-curvature="0"
         id="path16"
         style="fill:#1e66ba;fill-opacity:1;fill-rule:evenodd;stroke:none"
         d="m 134.145,245.039 c -4.715,0.031 -8.332,2.531 -8.161,5.25 0.172,2.731 3.864,4.652 8.336,4.609 4.473,-0.097 8.145,-2.238 8.176,-4.859 0.121,-2.828 -3.629,-5.117 -8.351,-5 v 0" />
      <path
         inkscape:connector-curvature="0"
         id="path18"
         style="fill:#1e7cc9;fill-opacity:1;fill-rule:evenodd;stroke:none"
         d="m 100.613,136.602 c -5.4177,0.039 -9.6599,4.558 -9.5114,9.988 0.1523,5.43 4.6054,9.789 9.9964,9.832 5.422,-0.012 9.761,-4.442 9.625,-9.942 -0.114,-5.519 -4.645,-9.941 -10.11,-9.878 v 0" />
      <path
         inkscape:connector-curvature="0"
         id="path20"
         style="fill:#1a7fcc;fill-opacity:1;fill-rule:evenodd;stroke:none"
         d="m 101.672,172.781 c -5.3048,-0.062 -9.3829,4.09 -9.0822,9.141 0.3008,5.047 4.7618,9.137 9.9762,9.289 5.247,0.09 9.391,-3.891 9.219,-8.941 -0.222,-5.18 -4.719,-9.418 -10.113,-9.489 v 0" />
      <path
         inkscape:connector-curvature="0"
         id="path22"
         style="fill:#1a7fcc;fill-opacity:1;fill-rule:evenodd;stroke:none"
         d="m 103.418,205.77 c -5.0274,-0.149 -8.9141,3.32 -8.4766,7.628 0.4453,4.321 4.7578,7.813 9.7536,8.082 4.907,0.18 8.828,-3.05 8.524,-7.359 -0.254,-4.422 -4.614,-8.18 -9.801,-8.351 v 0" />
      <path
         inkscape:connector-curvature="0"
         id="path24"
         style="fill:#1e66ba;fill-opacity:1;fill-rule:evenodd;stroke:none"
         d="m 105.828,233.281 c -4.812,-0.312 -8.285,2.328 -7.7577,5.598 0.5274,3.269 4.6487,5.961 9.1637,6.301 4.602,0.281 8.086,-2.039 7.864,-5.25 -0.391,-3.41 -4.524,-6.43 -9.27,-6.649 v 0" />
      <path
         inkscape:connector-curvature="0"
         id="path26"
         style="fill:#2750a6;fill-opacity:1;fill-rule:evenodd;stroke:none"
         d="m 108.516,253.441 c -4.258,-0.359 -7.246,1.25 -6.7,3.278 0.547,2.031 4.282,3.761 8.344,4.179 4.192,0.352 7.32,-0.886 6.875,-2.878 -0.273,-2.161 -4.148,-4.27 -8.519,-4.579 v 0" />
      <path
         inkscape:connector-curvature="0"
         id="path28"
         style="fill:#1e7cc9;fill-opacity:1;fill-rule:evenodd;stroke:none"
         d="m 70.5195,83.5391 c -4.8476,0.3515 -8.9218,4.75 -9.0898,9.8828 -0.1602,5.1289 3.6758,9.1681 8.582,8.9691 5.0352,-0.262 9.2266,-4.7621 9.3203,-10.059 0.1172,-5.2226 -3.8554,-9.1523 -8.8125,-8.7929 v 0" />
      <path
         inkscape:connector-curvature="0"
         id="path30"
         style="fill:#1a7fcc;fill-opacity:1;fill-rule:evenodd;stroke:none"
         d="m 69.9297,118.801 c -4.9492,0.148 -8.875,4.539 -8.793,9.859 0.0821,5.328 4.1524,9.629 9.1055,9.629 5.0508,-0.027 9.1133,-4.449 9.0156,-9.859 -0.0742,-5.45 -4.2734,-9.77 -9.3281,-9.629 v 0" />
      <path
         inkscape:connector-curvature="0"
         id="path32"
         style="fill:#1a7fcc;fill-opacity:1;fill-rule:evenodd;stroke:none"
         d="m 70.8633,154.73 c -4.9375,-0.14 -8.6289,4.051 -8.293,9.168 0.3242,5.102 4.4844,9.301 9.3242,9.5 4.9493,0.192 8.8047,-3.828 8.5235,-9.039 -0.2266,-5.238 -4.5274,-9.558 -9.5547,-9.629 v 0" />
      <path
         inkscape:connector-curvature="0"
         id="path34"
         style="fill:#1e66ba;fill-opacity:1;fill-rule:evenodd;stroke:none"
         d="m 73.1445,188.59 c -4.8047,-0.352 -8.1757,3.269 -7.6172,7.82 0.5508,4.539 4.7852,8.461 9.4766,8.93 4.7383,0.39 8.2695,-2.969 7.7852,-7.61 -0.4258,-4.718 -4.7344,-8.8 -9.6446,-9.14 v 0" />
      <path
         inkscape:connector-curvature="0"
         id="path36"
         style="fill:#1e66ba;fill-opacity:1;fill-rule:evenodd;stroke:none"
         d="m 76.7969,218.23 c -4.5078,-0.511 -7.5391,2.239 -6.8086,5.891 0.7383,3.649 4.8515,6.938 9.289,7.617 4.3907,0.571 7.5,-1.918 6.9727,-5.578 -0.5547,-3.84 -4.8516,-7.449 -9.4531,-7.93 v 0" />
      <path
         inkscape:connector-curvature="0"
         id="path38"
         style="fill:#2750a6;fill-opacity:1;fill-rule:evenodd;stroke:none"
         d="m 81.5039,241.488 c -4.1172,-0.679 -6.6992,1.071 -5.7578,3.653 0.9453,2.57 4.7187,4.961 8.6992,5.769 4.0899,0.738 6.7813,-0.68 6.0195,-3.23 -0.6484,-2.719 -4.6562,-5.52 -8.9609,-6.192 v 0" />
      <path
         inkscape:connector-curvature="0"
         id="path40"
         style="fill:#1a7fcc;fill-opacity:1;fill-rule:evenodd;stroke:none"
         d="m 43.1211,102.578 c -4.1875,0.231 -7.6602,4.57 -7.7617,9.602 -0.1016,5.039 3.2422,9.019 7.4844,8.84 4.375,-0.122 8.0195,-4.461 8.0703,-9.692 0.0859,-5.187 -3.4375,-9.098 -7.793,-8.75 v 0" />
      <path
         inkscape:connector-curvature="0"
         id="path42"
         style="fill:#1e66ba;fill-opacity:1;fill-rule:evenodd;stroke:none"
         d="m 43.0938,136.84 c -4.2383,-0.02 -7.4375,4.101 -7.1758,9.14 0.2695,5.04 3.8593,9.161 8.0664,9.321 4.3515,0.187 7.7539,-3.801 7.4883,-8.992 -0.2032,-5.18 -3.9961,-9.438 -8.3789,-9.469 v 0" />
      <path
         inkscape:connector-curvature="0"
         id="path44"
         style="fill:#1e66ba;fill-opacity:1;fill-rule:evenodd;stroke:none"
         d="m 45.2305,170.539 c -4.1797,-0.379 -7.0157,3.262 -6.4414,7.859 0.5742,4.602 4.3164,8.622 8.3984,9.141 4.2031,0.481 7.2695,-2.93 6.7383,-7.687 -0.5078,-4.872 -4.3789,-8.961 -8.6953,-9.313 v 0" />
      <path
         inkscape:connector-curvature="0"
         id="path46"
         style="fill:#2750a6;fill-opacity:1;fill-rule:evenodd;stroke:none"
         d="m 49.2773,201 c -3.9335,-0.602 -6.3867,2.25 -5.4882,6.18 0.8945,3.922 4.6601,7.531 8.4961,8.332 4.0117,0.797 6.6484,-1.793 5.8554,-5.821 -0.6953,-4.089 -4.7187,-8.043 -8.8633,-8.691 v 0" />
      <path
         inkscape:connector-curvature="0"
         id="path48"
         style="fill:#2750a6;fill-opacity:1;fill-rule:evenodd;stroke:none"
         d="m 55.2695,226.43 c -3.7539,-0.961 -5.8164,0.89 -4.6445,3.859 1.1719,2.973 4.9375,6 8.418,7.02 3.7109,1.043 5.8984,-0.528 4.9179,-3.528 -0.9414,-3.14 -4.8359,-6.461 -8.6914,-7.351 v 0" />
      <path
         inkscape:connector-curvature="0"
         id="path50"
         style="fill:#1e66ba;fill-opacity:1;fill-rule:evenodd;stroke:none"
         d="m 26.332,60.1992 c -3.125,1.0313 -6.1953,4.9024 -6.957,8.9219 -0.7617,4.0195 1.1133,6.9297 4.2969,6.1289 3.3515,-0.7383 6.6406,-4.8203 7.3203,-9.168 0.6992,-4.1914 -1.4531,-6.7617 -4.6602,-5.8828 v 0" />
      <path
         inkscape:connector-curvature="0"
         id="path52"
         style="fill:#1e66ba;fill-opacity:1;fill-rule:evenodd;stroke:none"
         d="m 22.0313,88.9102 c -3.2579,0.6289 -6.1485,4.7304 -6.5118,9.2812 -0.3632,4.5466 2.0157,7.9296 5.2969,7.6096 3.4609,-0.34 6.5781,-4.551 6.8399,-9.301 0.3281,-4.7109 -2.2383,-8.1016 -5.625,-7.5898 v 0" />
      <path
         inkscape:connector-curvature="0"
         id="path54"
         style="fill:#1e66ba;fill-opacity:1;fill-rule:evenodd;stroke:none"
         d="m 20.4258,120.488 c -3.3125,0.153 -5.9141,4.133 -5.836,8.832 0.0782,4.692 2.8086,8.571 6.125,8.711 3.4805,-0.011 6.3086,-3.89 6.1915,-8.84 -0.0508,-4.941 -3,-8.82 -6.4805,-8.703 v 0" />
      <path
         inkscape:connector-curvature="0"
         id="path56"
         style="fill:#2750a6;fill-opacity:1;fill-rule:evenodd;stroke:none"
         d="m 21.5977,152.719 c -3.3086,-0.321 -5.5274,3.281 -5.0157,7.82 0.5157,4.539 3.5118,8.43 6.7774,8.949 3.4258,0.492 5.8594,-2.988 5.3711,-7.699 -0.4297,-4.758 -3.6719,-8.859 -7.1328,-9.07 v 0" />
      <path
         inkscape:connector-curvature="0"
         id="path58"
         style="fill:#2750a6;fill-opacity:1;fill-rule:evenodd;stroke:none"
         d="m 25.4258,183 c -3.1445,-0.578 -4.9336,2.332 -4.0586,6.281 0.875,3.938 4.0391,7.649 7.1094,8.489 3.2929,0.89 5.3359,-1.739 4.4922,-5.911 -0.7696,-4.238 -4.1875,-8.23 -7.543,-8.859 v 0" />
      <path
         inkscape:connector-curvature="0"
         id="path60"
         style="fill:#2750a6;fill-opacity:1;fill-rule:evenodd;stroke:none"
         d="m 31.6563,209.262 c -2.961,-0.992 -4.3672,0.937 -3.129,4.117 1.2383,3.172 4.5782,6.601 7.4297,7.793 3.1055,1.25 4.6289,-0.5 3.5,-3.793 -1.0664,-3.41 -4.6132,-7.109 -7.8007,-8.117 v 0" />
      <path
         inkscape:connector-curvature="0"
         id="path62"
         style="fill:#2750a6;fill-opacity:1;fill-rule:evenodd;stroke:none"
         d="M 7.9375,78.7891 C 5.80078,79.6914 3.57031,83.4414 2.89063,87.3984 2.21875,91.3711 3.40625,94.2305 5.60156,93.5703 7.96484,93 10.4414,89.0508 11.0195,84.8086 c 0.6836,-4.2695 -0.789,-6.8203 -3.082,-6.0195 v 0" />
      <path
         inkscape:connector-curvature="0"
         id="path64"
         style="fill:#2750a6;fill-opacity:1;fill-rule:evenodd;stroke:none"
         d="m 4.33984,106.73 c -2.22656,0.442 -4.148434,4.192 -4.324215,8.43 -0.183594,4.238 1.472655,7.61 3.714845,7.559 2.43359,-0.168 4.59375,-3.938 4.71875,-8.539 0.1875,-4.489 -1.69531,-7.828 -4.10938,-7.45 v 0" />
      <path
         inkscape:connector-curvature="0"
         id="path66"
         style="fill:#2750a6;fill-opacity:1;fill-rule:evenodd;stroke:none"
         d="m 3.96484,136.32 c -2.25,-0.109 -3.789059,3.321 -3.46484,7.559 0.316406,4.242 2.39063,8.031 4.59766,8.269 2.4414,0.43 4.20312,-2.988 3.86328,-7.468 -0.28125,-4.602 -2.5586,-8.282 -4.9961,-8.36 v 0" />
      <path
         inkscape:connector-curvature="0"
         id="path68"
         style="fill:#2750a6;fill-opacity:1;fill-rule:evenodd;stroke:none"
         d="m 6.80078,165.27 c -2.19922,-0.579 -3.33203,2.199 -2.51172,6.14 0.8086,3.942 3.20703,7.731 5.35938,8.57 2.30466,0.719 3.68356,-1.871 2.89456,-6 -0.7266,-4.23 -3.32816,-8.101 -5.74222,-8.71 v 0" />
      <path
         inkscape:connector-curvature="0"
         id="path70"
         style="fill:#1e7cc9;fill-opacity:1;fill-rule:evenodd;stroke:none"
         d="m 132.418,117.488 c -5.582,0.09 -10.047,4.692 -9.957,10.262 0.082,5.59 4.68,10.039 10.254,9.969 5.586,-0.09 10.043,-4.68 9.973,-10.258 -0.09,-5.582 -4.684,-10.063 -10.27,-9.973 v 0" />
    </g>
    <g
       id="g4747"
       transform="matrix(0.10583334,0,0,-0.10583334,79.358581,66.117869)"
       inkscape:export-xdpi="96"
       inkscape:export-ydpi="96">
      <text
         transform="scale(1,-1)"
         id="text4706"
         y="-103.59978"
         x="196.03656"
         style="font-style:normal;font-variant:normal;font-weight:normal;font-stretch:normal;font-size:80px;line-height:1.25;font-family:sans-serif;-inkscape-font-specification:'sans-serif, Normal';font-variant-ligatures:normal;font-variant-caps:normal;font-variant-numeric:normal;font-feature-settings:normal;text-align:start;letter-spacing:0px;word-spacing:0px;writing-mode:lr-tb;text-anchor:start;fill:#2750a6;fill-opacity:1;stroke:none;stroke-width:7.5"
         xml:space="preserve"><tspan
           style="font-style:normal;font-variant:normal;font-weight:normal;font-stretch:normal;font-size:80px;font-family:sans-serif;-inkscape-font-specification:'sans-serif, Normal';font-variant-ligatures:normal;font-variant-caps:normal;font-variant-numeric:normal;font-feature-settings:normal;text-align:start;writing-mode:lr-tb;text-anchor:start;fill:#2750a6;fill-opacity:1;stroke-width:7.5"
           y="-103.59978"
           x="196.03656"
           id="tspan4704"
           sodipodi:role="line">soc</tspan></text>
      <text
         transform="scale(1,-1)"
         id="text4710"
         y="-103.59978"
         x="335.44858"
         style="font-style:normal;font-variant:normal;font-weight:normal;font-stretch:normal;font-size:80px;line-height:1.25;font-family:sans-serif;-inkscape-font-specification:'sans-serif, Normal';font-variant-ligatures:normal;font-variant-caps:normal;font-variant-numeric:normal;font-feature-settings:normal;text-align:start;letter-spacing:0px;word-spacing:0px;writing-mode:lr-tb;text-anchor:start;fill:#1e7cc9;fill-opacity:1;stroke:none;stroke-width:7.5"
         xml:space="preserve"><tspan
           style="font-style:normal;font-variant:normal;font-weight:normal;font-stretch:normal;font-size:80px;font-family:sans-serif;-inkscape-font-specification:'sans-serif, Normal';font-variant-ligatures:normal;font-variant-caps:normal;font-variant-numeric:normal;font-feature-settings:normal;text-align:start;writing-mode:lr-tb;text-anchor:start;fill:#1e7cc9;fill-opacity:1;stroke-width:7.5"
           y="-103.59978"
           x="335.44858"
           id="tspan4708"
           sodipodi:role="line">OS</tspan></text>
    </g>
  </g>
</svg>
